# xmcd CD database file
#
# Track frame offsets:
#	150
#	34370
#	68299
#	102069
#	126738
#	153595
#	187714
#
# Disc length: 2889 seconds
#
# Revision: 0
# Processed by: cddbd v1.5.2PL0 Copyright (c) Steve Scherf et al.
# Submitted via: CDex 1.51
#
DISCID=550b4707
DTITLE=Martin Krümmling - The Vision Behind
DYEAR=2012
DGENRE=Jazz
TTITLE0=Where Do We Go From Here
TTITLE1=The Vision Behind
TTITLE2=Maybe Next Time
TTITLE3=Warmer Herbst
TTITLE4=Pent Up House
TTITLE5=Und es kam anders
TTITLE6=Wenn ich nur wüsste
EXTD=YEAR: 2012
EXTT0=
EXTT1=
EXTT2=
EXTT3=
EXTT4=
EXTT5=
EXTT6=
PLAYORDER=
